<?xml version="1.0" encoding="UTF-8" standalone="no"?>
<svg xmlns:dc="http://purl.org/dc/elements/1.1/" 
	xmlns:cc="http://creativecommons.org/ns#" 
	xmlns:rdf="http://www.w3.org/1999/02/22-rdf-syntax-ns#" 
	xmlns:svg="http://www.w3.org/2000/svg" 
	xmlns="http://www.w3.org/2000/svg" 
	xmlns:sodipodi="http://sodipodi.sourceforge.net/DTD/sodipodi-0.dtd" 
	xmlns:inkscape="http://www.inkscape.org/namespaces/inkscape" width="575.9314" height="480.00284" version="1.1" id="svg44" sodipodi:docname="Warning_sign_orange_setting_white.svg" inkscape:version="0.92.3 (2405546, 2018-03-11)">
	<sodipodi:namedview pagecolor="#ffffff" bordercolor="#666666" borderopacity="1" objecttolerance="10" gridtolerance="10" guidetolerance="10" inkscape:pageopacity="0" inkscape:pageshadow="2" inkscape:window-width="1920" inkscape:window-height="1000" id="namedview46" showgrid="false" fit-margin-top="0" fit-margin-left="0" fit-margin-right="0" fit-margin-bottom="0" inkscape:zoom="0.70710678" inkscape:cx="-25.341311" inkscape:cy="39.005852" inkscape:window-x="-11" inkscape:window-y="-11" inkscape:window-maximized="1" inkscape:current-layer="svg44" />
	<defs id="defs4">
		<linearGradient x1="187.87357" y1="224.60001" x2="581.83698" y2="483.10001" id="g1" gradientUnits="userSpaceOnUse" gradientTransform="matrix(0.96,0,0,0.96,2.5e-6,-1e-5)">
			<stop stop-color="#fcb852" offset="0" id="stop2" />
			<stop stop-color="#f07600" offset="1" id="stop4" />
		</linearGradient>
		<radialGradient cx="295.47101" cy="186.09599" r="179.55" id="g2" gradientUnits="userSpaceOnUse" gradientTransform="matrix(0,1.531256,-0.876504,0,451.06789,-254.78757)">
			<stop stop-color="#fff" offset="0" id="stop7" />
			<stop stop-color="#fff" offset="0.5" id="stop9" />
			<stop stop-color="#d5d5d5" offset="1" id="stop11" />
		</radialGradient>
		<linearGradient x1="250.39999" y1="101.536" x2="412.0943" y2="264.54001" id="g3" gradientUnits="userSpaceOnUse" gradientTransform="matrix(0.96,0,0,0.96,2.5e-6,-3e-6)">
			<stop stop-color="#ffe6bf" offset="0" id="stop14" />
			<stop stop-color="#fd9807" offset="1" id="stop16" />
		</linearGradient>
		<linearGradient x1="41.195" y1="616.47699" x2="118.93" y2="527.56" id="g4" gradientUnits="userSpaceOnUse" gradientTransform="matrix(4.556763,0,0,-4.315033,25.816852,2748.7314)">
			<stop stop-color="#ff7f03" offset="0" id="stop19" />
			<stop stop-color="#a44900" offset="1" id="stop21" />
		</linearGradient>
		<linearGradient x1="530.81" y1="486.63101" x2="174.80499" y2="211.23" id="g5" gradientUnits="userSpaceOnUse" gradientTransform="matrix(0.96,0,0,0.96,2.5e-6,-3e-6)">
			<stop stop-color="#be5e00" offset="0" id="stop24" />
			<stop stop-color="#ff8b01" offset="1" id="stop26" />
		</linearGradient>
	</defs>
	<path d="m 263.90559,13.248082 c 0,0 -260.1615675,427.202448 -260.1615675,427.202448 -4.99203,8.1601 -4.99203,18.2402 0,26.4002 4.89603,8.0641 14.1120805,13.1521 24.0961405,13.1521 H 548.16319 c 9.8881,0 19.1041,-5.088 24.0962,-13.1521 4.896,-8.16 4.896,-18.2401 0,-26.4002 L 312.09779,13.248082 C 307.10579,5.088032 297.88979,0 288.00169,0 c -9.8881,0 -19.1041,5.088032 -24.0961,13.248082 z" id="path32" inkscape:connector-curvature="0" style="fill:url(#g4)" />
	<path d="m 288.00169,21.984132 c -1.632,0 -3.168,0.864 -4.032,2.20801 L 153.88889,237.79343 23.808142,451.39463 c -0.86401,1.344 -0.86401,3.072 0,4.416 0.864,1.344 2.40001,2.208 4.032021,2.208 H 548.16319 c 1.632,0 3.168,-0.864 4.0321,-2.208 0.864,-1.344 0.864,-3.072 0,-4.416 L 292.03369,24.192142 c -0.864,-1.34401 -2.4,-2.20801 -4.032,-2.20801 z" id="path34" inkscape:connector-curvature="0" style="fill:url(#g5)" />
	<path d="m 287.96569,21.984132 c -1.632,0 -3.1681,0.864 -4.0321,2.20801 L 153.85289,237.79343 23.772122,451.39463 c -0.86401,1.344 -0.86401,3.072 0,4.416 0.864,1.344 2.40001,2.208 4.03202,2.208 H 548.12719 c 1.632,0 3.168,-0.864 4.032,-2.208 0.864,-1.344 0.864,-3.072 0,-4.416 L 291.99769,24.192142 c -0.864,-1.34401 -2.4,-2.20801 -4.032,-2.20801 z" id="path36" inkscape:connector-curvature="0" style="fill:none;stroke:url(#g1);stroke-width:11.52000046;stroke-linejoin:round" />
	<path d="m 288.07069,29.677552 c -1.5457,0.0764 -2.9865,0.93901 -3.81,2.22002 l -130.0808,213.601258 -18.1201,29.7602 c 44.1342,26.493 95.7728,41.7602 150.9609,41.7602 55.9718,0 108.3072,-15.6775 152.8509,-42.8702 L 292.33069,31.897572 c -0.864,-1.34402 -2.388,-2.22002 -4.02,-2.22002 -0.0765,0 -0.164,-0.0038 -0.24,0 z" id="path38" inkscape:connector-curvature="0" style="fill:url(#g3);stroke-width:10;stroke-linejoin:round" />
	<path d="m 274.75369,135.93683 -157.153,257.9536 c -2.688,4.5121 -2.688,10.0801 0,14.4961 2.6881,4.512 7.7761,7.2961 13.2481,7.2961 h 314.21 c 5.472,0 10.5601,-2.7841 13.2481,-7.2961 2.688,-4.512 2.688,-9.984 0,-14.4961 l -157.057,-257.9536 c -2.688,-4.512 -7.7761,-7.296 -13.2481,-7.296 -5.472,0 -10.5601,2.784 -13.2481,7.296 z" id="path40" inkscape:connector-curvature="0" style="fill:url(#g2)" />
	<path d="m 279.71609,406.52983 c -9.0037,-4.3123 -15.8606,-14.6812 -15.8606,-23.9841 0,-17.3217 18.1004,-30.3699 35.2258,-25.3935 11.5531,3.3573 19.4054,13.7831 19.3092,25.6376 -0.0821,10.07 -4.4406,17.4882 -13.3371,22.6999 -6.8099,3.9892 -18.2035,4.4568 -25.3373,1.0401 z m 2.0464,-68.398 c -1.1255,-0.6185 -3.7763,-2.7721 -5.8903,-4.7857 -7.3865,-7.0354 -7.3773,-6.9735 -12.1922,-82.2522 -4.2802,-66.9174 -4.3156,-67.9572 -2.479,-72.764 4.1317,-10.8147 13.3379,-15.5503 28.6668,-14.7461 9.7437,0.5113 17.2478,3.9331 22.1255,10.0893 4.1664,5.2583 5.0722,8.2309 5.0684,16.6316 -0.004,9.1288 -5.8356,121.0778 -6.6645,127.9382 -1.0853,8.9851 -6.3313,16.2767 -14.0204,19.4872 -4.3938,1.8348 -11.6439,2.0341 -14.6143,0.4017 z" id="path42" inkscape:connector-curvature="0" />
</svg>
