<?xml version="1.0" encoding="UTF-8" standalone="no"?>
<svg xmlns:dc="http://purl.org/dc/elements/1.1/" 
	xmlns:cc="http://creativecommons.org/ns#" 
	xmlns:rdf="http://www.w3.org/1999/02/22-rdf-syntax-ns#" 
	xmlns:svg="http://www.w3.org/2000/svg" 
	xmlns="http://www.w3.org/2000/svg" 
	xmlns:xlink="http://www.w3.org/1999/xlink" 
	xmlns:sodipodi="http://sodipodi.sourceforge.net/DTD/sodipodi-0.dtd" 
	xmlns:inkscape="http://www.inkscape.org/namespaces/inkscape" height="42.67395" id="svg7854" version="1.0" width="43.318054" sodipodi:docname="iconfinder_software-update-available_118955.svg" inkscape:version="0.92.3 (2405546, 2018-03-11)">
	<sodipodi:namedview pagecolor="#ffffff" bordercolor="#666666" borderopacity="1" objecttolerance="10" gridtolerance="10" guidetolerance="10" inkscape:pageopacity="0" inkscape:pageshadow="2" inkscape:window-width="1920" inkscape:window-height="1000" id="namedview23" showgrid="false" fit-margin-top="0" fit-margin-left="0" fit-margin-right="0" fit-margin-bottom="0" inkscape:zoom="4.9166667" inkscape:cx="-2.8112387" inkscape:cy="21.052479" inkscape:window-x="-11" inkscape:window-y="-11" inkscape:window-maximized="1" inkscape:current-layer="svg7854" />
	<defs id="defs7856">
		<linearGradient id="linearGradient5202">
			<stop id="stop5204" offset="0" style="stop-color:#ffffff;stop-opacity:1;" />
			<stop id="stop5206" offset="1" style="stop-color:#ffffff;stop-opacity:0;" />
		</linearGradient>
		<linearGradient id="linearGradient5190">
			<stop id="stop5192" offset="0" style="stop-color:#f57900;stop-opacity:1;" />
			<stop id="stop5194" offset="1" style="stop-color:#fcaf3e;stop-opacity:1" />
		</linearGradient>
		<linearGradient id="linearGradient5130">
			<stop id="stop5132" offset="0" style="stop-color:#000000;stop-opacity:1;" />
			<stop id="stop5134" offset="1" style="stop-color:#000000;stop-opacity:0;" />
		</linearGradient>
		<radialGradient cx="22" cy="38.5" fx="22" fy="38.5" gradientTransform="matrix(1,0,0,0.5,0,19.25)" gradientUnits="userSpaceOnUse" id="radialGradient5136" r="13" xlink:href="#linearGradient5130" />
		<filter height="1.6939759" id="filter5186" width="1.346988" x="-0.17349398" y="-0.34698796">
			<feGaussianBlur id="feGaussianBlur5188" stdDeviation="1.8795181" />
		</filter>
		<radialGradient cx="21.525126" cy="30.439341" fx="21.525126" fy="30.439341" gradientTransform="matrix(0,-1.2519025,47.292244,0,-1418.0196,57.3867)" gradientUnits="userSpaceOnUse" id="radialGradient5200" r="18.888176" xlink:href="#linearGradient5190" />
		<linearGradient gradientUnits="userSpaceOnUse" id="linearGradient5208" x1="22.109375" x2="22.109375" xlink:href="#linearGradient5202" y1="11.34375" y2="49.612667" />
	</defs>
	<g id="layer1" transform="translate(-2.9129336,-2.3785284)">
		<path d="M 35.099492,35.723338 26.703003,33.840596 22.097088,41.10911 17.491173,33.840597 9.094684,35.723338 10.977425,27.32685 3.7089119,22.720934 10.977425,18.115019 9.0946839,9.71853 l 8.3964881,1.882741 4.605916,-7.2685131 4.605914,7.2685131 8.39649,-1.882741 -1.882742,8.396488 7.268514,4.605916 -7.268513,4.605915 z" id="path4547" style="color:#000000;display:inline;overflow:visible;visibility:visible;opacity:1;fill:url(#radialGradient5200);fill-opacity:1;fill-rule:nonzero;stroke:#ce5c00;stroke-width:1;stroke-linecap:butt;stroke-linejoin:miter;stroke-miterlimit:4;stroke-dasharray:none;stroke-dashoffset:0;stroke-opacity:1;marker:none;marker-start:none;marker-mid:none;marker-end:none;enable-background:accumulate" transform="matrix(1.1209343,0,0,1.1042669,-0.1974224,-1.3744715)" inkscape:connector-curvature="0" />
		<path d="M 22.09375,6.15625 18.3125,12.125 c -0.224953,0.337771 -0.636366,0.499843 -1.03125,0.40625 L 10.375,11 11.90625,17.90625 C 11.99984,18.301134 11.83777,18.712547 11.5,18.9375 L 5.53125,22.71875 11.5,26.5 c 0.337771,0.224953 0.499843,0.636366 0.40625,1.03125 L 10.375,34.4375 17.28125,32.90625 c 0.394884,-0.09359 0.806297,0.06848 1.03125,0.40625 l 3.78125,5.96875 3.78125,-5.96875 c 0.224953,-0.337771 0.636366,-0.499843 1.03125,-0.40625 L 33.8125,34.4375 32.28125,27.53125 C 32.187657,27.136366 32.349729,26.724953 32.6875,26.5 l 6,-3.78125 -6,-3.78125 C 32.349729,18.712547 32.187657,18.301134 32.28125,17.90625 L 33.8125,11 26.90625,12.53125 C 26.511366,12.624843 26.099953,12.462771 25.875,12.125 Z" id="path5198" style="color:#000000;display:inline;overflow:visible;visibility:visible;opacity:0.33734945;fill:none;fill-opacity:1;fill-rule:nonzero;stroke:url(#linearGradient5208);stroke-width:1;stroke-linecap:butt;stroke-linejoin:miter;stroke-miterlimit:4;stroke-dasharray:none;stroke-dashoffset:0;stroke-opacity:1;marker:none;marker-start:none;marker-mid:none;marker-end:none;enable-background:accumulate" transform="matrix(1.1263736,0,0,1.1263736,-0.2940419,-1.8085508)" xlink:href="#path4547" inkscape:connector-curvature="0" />
		<path d="m 21.536458,18 c -0.693774,0 -1.239583,0.599375 -1.239583,1.348958 V 25 h -3.9375 l 8.677083,7 8.166667,-7 H 29.630208 V 19.348958 C 29.630208,18.599374 29.047941,18 28.354167,18 Z" id="rect4610" style="color:#000000;display:inline;overflow:visible;visibility:visible;opacity:1;fill:#fed08e;fill-opacity:1;fill-rule:nonzero;stroke:none;stroke-width:0.90702784;stroke-linecap:butt;stroke-linejoin:miter;stroke-miterlimit:4;stroke-dasharray:none;stroke-dashoffset:0;stroke-opacity:1;marker:none;marker-start:none;marker-mid:none;marker-end:none;enable-background:accumulate" inkscape:connector-curvature="0" />
	</g>
</svg>
